<svg width="64" height="20" viewBox="0 0 64 20" fill="none" xmlns="http://www.w3.org/2000/svg">
<g clip-path="url(#clip0_0_95)">
<path d="M61.0213 10.9855C61.0213 11.203 60.9349 11.4117 60.781 11.5655C60.6272 11.7193 60.4186 11.8058 60.201 11.8058H50.8408C50.6232 11.8058 50.4146 11.7193 50.2608 11.5655C50.1069 11.4117 50.0205 11.203 50.0205 10.9855V3.89026C50.0205 3.6727 50.1069 3.46405 50.2608 3.31021C50.4146 3.15637 50.6232 3.06995 50.8408 3.06995H60.201C60.3087 3.06995 60.4154 3.09116 60.5149 3.13239C60.6144 3.17361 60.7049 3.23404 60.781 3.31021C60.8572 3.38638 60.9176 3.47681 60.9589 3.57634C61.0001 3.67586 61.0213 3.78253 61.0213 3.89026V10.9855Z" fill="#8E7B70"/>
<path d="M56.6772 8.31291C56.6772 8.37809 56.6644 8.44264 56.6395 8.50286C56.6146 8.56308 56.578 8.6178 56.5319 8.66389C56.4858 8.70997 56.4311 8.74653 56.3709 8.77147C56.3107 8.7964 56.2461 8.80923 56.1809 8.80921H50.5168C50.4516 8.80923 50.3871 8.7964 50.3269 8.77147C50.2666 8.74653 50.2119 8.70997 50.1658 8.66389C50.1197 8.6178 50.0832 8.56308 50.0583 8.50286C50.0333 8.44264 50.0205 8.37809 50.0205 8.31291V2.64864C50.0205 2.58346 50.0333 2.51892 50.0583 2.4587C50.0832 2.39848 50.1197 2.34376 50.1658 2.29767C50.2119 2.25158 50.2666 2.21502 50.3269 2.19009C50.3871 2.16515 50.4516 2.15233 50.5168 2.15234H56.1809C56.2461 2.15233 56.3107 2.16515 56.3709 2.19009C56.4311 2.21502 56.4858 2.25158 56.5319 2.29767C56.578 2.34376 56.6146 2.39848 56.6395 2.4587C56.6644 2.51892 56.6772 2.58346 56.6772 2.64864V8.31291Z" fill="#597B91"/>
<path d="M15.062 14.4511C15.0376 14.4511 15.0137 14.4439 14.9934 14.4303C14.9731 14.4168 14.9573 14.3975 14.9479 14.3749C14.9385 14.3524 14.9361 14.3276 14.9408 14.3036C14.9456 14.2797 14.9574 14.2577 14.9746 14.2404L20.8625 8.35221C20.8857 8.32905 20.9171 8.31604 20.9499 8.31604C20.9826 8.31604 21.014 8.32905 21.0372 8.35221C21.0604 8.37537 21.0734 8.40679 21.0734 8.43954C21.0734 8.4723 21.0604 8.50371 21.0372 8.52687L15.1493 14.4149C15.1379 14.4264 15.1243 14.4356 15.1093 14.4418C15.0943 14.448 15.0782 14.4511 15.062 14.4511Z" fill="#2B3B47"/>
<path d="M22.169 11.507H13.8422C13.8094 11.507 13.778 11.494 13.7549 11.4708C13.7318 11.4477 13.7188 11.4163 13.7188 11.3836C13.7188 11.3508 13.7318 11.3194 13.7549 11.2963C13.778 11.2731 13.8094 11.2601 13.8422 11.2601H22.169C22.2018 11.2601 22.2332 11.2731 22.2563 11.2963C22.2794 11.3194 22.2924 11.3508 22.2924 11.3836C22.2924 11.4163 22.2794 11.4477 22.2563 11.4708C22.2332 11.494 22.2018 11.507 22.169 11.507Z" fill="#2B3B47"/>
<path d="M18.0059 6.06372C15.0725 6.06372 12.686 8.45023 12.686 11.3837C12.686 14.3171 15.0725 16.7036 18.0059 16.7036C20.9392 16.7036 23.3257 14.3171 23.3257 11.3837C23.3256 8.45023 20.9391 6.06372 18.0059 6.06372ZM20.7607 11.3837C20.7616 12.0718 20.504 12.7351 20.039 13.2423L18.1293 11.3325V8.63187C19.5935 8.69645 20.7607 9.9036 20.7607 11.3837ZM18.1293 11.6819L19.8644 13.417C19.3886 13.8532 18.7742 14.1077 18.1293 14.1356V11.6819ZM17.8823 11.0855L16.1472 9.35033C16.623 8.91408 17.2374 8.65962 17.8823 8.63175V11.0855ZM15.2509 11.3837C15.25 10.6955 15.5076 10.0322 15.9726 9.52499L17.8823 11.4348V14.1354C16.4181 14.0709 15.2509 12.8637 15.2509 11.3837Z" fill="#2B3B47"/>
<path d="M18.0059 12.3934C18.5636 12.3934 19.0157 11.9413 19.0157 11.3836C19.0157 10.8259 18.5636 10.3738 18.0059 10.3738C17.4482 10.3738 16.9961 10.8259 16.9961 11.3836C16.9961 11.9413 17.4482 12.3934 18.0059 12.3934Z" fill="#FF473E"/>
<path d="M52.9215 10.4574H31.952L30.9346 14.6785C30.9346 14.6785 32.094 15.6943 37.8936 15.6943H52.9216V10.4574H52.9215Z" fill="#597B91"/>
<path d="M62.9038 2.08468H59.1168V1.56706C59.1168 1.42191 59.0592 1.28271 58.9565 1.18007C58.8539 1.07743 58.7147 1.01977 58.5695 1.01977H53.0074C52.8622 1.01977 52.723 1.07743 52.6204 1.18007C52.5178 1.28271 52.4601 1.42191 52.4601 1.56706V4.56058C45.3183 0.989102 35.0668 0.300565 35.0668 1.31461C35.0668 2.65591 36.3206 4.94081 34.7667 6.38671H27.9472C26.8436 6.38671 25.8955 7.00942 25.4042 7.91612C23.6946 8.0014 21.3625 8.04977 18.0888 8.04977C8.18654 8.04977 2.95249 11.6068 2.95249 11.6068V12.7995H1.03528C0.966878 12.7995 0.901291 12.8267 0.852927 12.8751C0.804562 12.9234 0.777377 12.989 0.777344 13.0574V14.7939C0.777344 14.9364 0.892783 15.0518 1.03528 15.0518H4.81062C4.87902 15.0518 4.94461 15.0246 4.99297 14.9763C5.04134 14.9279 5.06852 14.8623 5.06855 14.7939V12.9384H22.7569C27.7079 12.9384 29.4055 15.1638 35.3468 15.1638C35.6963 15.1638 40.3582 15.0557 41.6417 14.8244C44.3881 14.3293 42.8913 12.7654 49.8473 12.7654L52.5416 12.8152C52.6392 12.9766 52.8147 13.0856 53.017 13.0856H62.9036C63.0514 13.0855 63.193 13.0268 63.2974 12.9224C63.4019 12.8179 63.4606 12.6763 63.4606 12.5286V2.64169C63.4607 2.56855 63.4463 2.49612 63.4183 2.42854C63.3903 2.36096 63.3493 2.29956 63.2976 2.24783C63.2459 2.19611 63.1845 2.15508 63.1169 2.12708C63.0493 2.09909 62.9769 2.08468 62.9038 2.08468Z" fill="#BFBCAF"/>
<path d="M15.6613 13.0855C15.6613 15.385 13.7973 17.249 11.4979 17.249C9.19846 17.249 7.33447 15.385 7.33447 13.0855C7.33447 10.786 9.19846 8.92199 11.4979 8.92199C13.7973 8.92199 15.6613 10.7861 15.6613 13.0855ZM52.46 8.45947C49.9051 8.45947 47.8339 10.5307 47.8339 13.0856C47.8339 15.6406 49.9051 17.7118 52.46 17.7118C55.0149 17.7118 57.0861 15.6406 57.0861 13.0856C57.0861 10.5306 55.0149 8.45947 52.46 8.45947Z" fill="white"/>
<path d="M8.73022 16.2059L8.37767 15.8534L14.2657 9.96533L14.6183 10.3179L8.73022 16.2059ZM15.6613 12.8362H7.33447V13.3348H15.6613V12.8362Z" fill="#597B91"/>
<path d="M28.4951 6.38672H27.9473C26.9021 6.38672 25.9969 6.94585 25.4866 7.77526L22.6904 7.74285L18.7044 7.74036C17.2448 7.7628 15.6865 7.78998 14.124 7.89993C13.3418 7.95853 12.5618 8.03507 11.7977 8.13742L9.57244 8.43363C8.85487 8.51641 8.14553 8.63809 7.46648 8.74518C6.79466 8.87396 6.16324 9.04052 5.58853 9.21567C5.01769 9.41003 4.4941 9.59117 4.04917 9.80996C3.59265 9.99759 3.22227 10.2325 2.90662 10.4011C2.2995 10.775 1.9376 11.0932 1.95992 11.0756C1.72829 11.2854 2.488 12.1242 2.71962 11.9143C2.74007 11.8959 2.95387 11.6863 3.4888 11.3197C3.76668 11.1586 4.08645 10.9325 4.50046 10.7436C4.89814 10.5259 5.3776 10.3389 5.90231 10.135C6.43264 9.94959 7.02043 9.76795 7.65198 9.61947C8.28765 9.49381 8.96059 9.34421 9.68813 9.23961L11.905 8.87271C12.6539 8.74804 13.4175 8.64868 14.183 8.5669C15.717 8.40995 17.2656 8.33352 18.7178 8.26521L22.6938 8.14166L25.5452 8.08432L32.4214 14.9606C33.2819 15.0863 34.2405 15.1637 35.347 15.1637C35.4813 15.1637 36.2528 15.1476 37.2231 15.1149L28.4951 6.38672Z" fill="#FF473E"/>
<path d="M11.747 17.249H11.2483V8.92212H11.747V17.249ZM14.618 15.8533L8.72999 9.96521L8.37744 10.3178L14.2655 16.2058L14.618 15.8533Z" fill="#597B91"/>
<path d="M11.4976 10.3307C13.0191 10.3307 14.2525 11.5641 14.2525 13.0857C14.2525 14.6072 13.0191 15.8407 11.4976 15.8407C9.97602 15.8407 8.74259 14.6072 8.74259 13.0857C8.74259 11.5641 9.97602 10.3307 11.4976 10.3307ZM11.4976 7.76575C8.56419 7.76575 6.17773 10.1523 6.17773 13.0857C6.17773 16.0191 8.56419 18.4056 11.4976 18.4056C14.4309 18.4056 16.8174 16.0191 16.8174 13.0857C16.8174 10.1523 14.4309 7.76575 11.4976 7.76575Z" fill="#2B3B47"/>
<path d="M52.7094 17.7117H52.2107V8.45947H52.7094V17.7117ZM55.9075 9.99064L55.555 9.63808L49.0127 16.1805L49.3652 16.5331L55.9075 9.99064Z" fill="#597B91"/>
<path d="M57.086 13.3349H47.834V12.8363H57.086V13.3349ZM55.9074 16.1806L49.3651 9.63818L49.0126 9.99074L55.5548 16.5332L55.9074 16.1806Z" fill="#597B91"/>
<path d="M52.4597 10.0245C54.1503 10.0245 55.5207 11.3949 55.5207 13.0855C55.5207 14.7762 54.1503 16.1466 52.4597 16.1466C50.7691 16.1466 49.3987 14.7762 49.3987 13.0855C49.3987 11.3949 50.7692 10.0245 52.4597 10.0245ZM52.4597 7.17456C49.2004 7.17456 46.5488 9.82624 46.5488 13.0855C46.5488 16.3449 49.2004 18.9965 52.4597 18.9965C55.7189 18.9965 58.3705 16.3449 58.3705 13.0855C58.3705 9.82624 55.719 7.17456 52.4597 7.17456Z" fill="#2B3B47"/>
<path d="M12.5074 13.0855C12.5074 13.3533 12.401 13.6102 12.2116 13.7995C12.0222 13.9889 11.7654 14.0953 11.4976 14.0953C11.2298 14.0953 10.9729 13.9889 10.7836 13.7995C10.5942 13.6102 10.4878 13.3533 10.4878 13.0855C10.4878 12.8177 10.5942 12.5608 10.7836 12.3715C10.9729 12.1821 11.2298 12.0757 11.4976 12.0757C11.7654 12.0757 12.0222 12.1821 12.2116 12.3715C12.401 12.5608 12.5074 12.8177 12.5074 13.0855ZM52.4596 11.9636C52.1621 11.9636 51.8767 12.0818 51.6663 12.2923C51.4559 12.5027 51.3377 12.7881 51.3377 13.0856C51.3377 13.3832 51.4559 13.6686 51.6663 13.879C51.8767 14.0894 52.1621 14.2076 52.4596 14.2076C52.7572 14.2076 53.0426 14.0894 53.253 13.879C53.4634 13.6686 53.5816 13.3832 53.5816 13.0856C53.5816 12.7881 53.4634 12.5027 53.253 12.2923C53.0426 12.0818 52.7572 11.9636 52.4596 11.9636Z" fill="#FF473E"/>
<path d="M52.4599 4.67773C50.5588 4.67926 48.7141 5.32382 47.2258 6.50661C47.0489 6.46908 46.8594 6.43654 46.6602 6.39553C46.3317 6.33357 45.9734 6.25702 45.5963 6.20703L44.4175 6.13248C44.0216 6.10431 43.5688 6.07463 43.1414 6.0876L41.8373 6.09283C40.0894 6.10705 38.3413 6.08785 37.0304 6.13871C35.7194 6.18297 34.8454 6.27759 34.8454 6.27759C34.8385 6.27825 34.8321 6.28143 34.8275 6.28652C34.8229 6.29162 34.8203 6.29826 34.8203 6.30514C34.8203 6.31203 34.8229 6.31867 34.8275 6.32376C34.8321 6.32886 34.8385 6.33204 34.8454 6.3327C34.8454 6.3327 35.7194 6.42732 37.0304 6.47158C38.3413 6.52256 40.0893 6.50324 41.8373 6.51745L43.1414 6.52269C43.5751 6.51334 43.9671 6.54438 44.3884 6.57667L45.5668 6.6607L46.5873 6.83623C46.9026 6.89395 47.195 6.92624 47.4477 7.00291L48.1066 7.17208C48.4715 7.26695 48.6686 7.34113 48.6686 7.34113C48.7175 7.36019 48.772 7.35903 48.8201 7.33791C48.8682 7.31679 48.9059 7.27743 48.9249 7.22849C48.944 7.17956 48.9428 7.12506 48.9217 7.07698C48.9006 7.0289 48.8612 6.99118 48.8123 6.97212L48.8079 6.97037C48.8079 6.97037 48.5968 6.88547 48.2239 6.77913L47.7103 6.63439C49.0869 5.62156 50.751 5.07473 52.4601 5.07355C56.8772 5.07355 60.4712 8.66759 60.4712 13.0852H60.8679C60.8675 8.44917 57.0954 4.67773 52.4599 4.67773Z" fill="#597B91"/>
<path d="M40.1465 14.9761C40.7776 14.9332 41.3178 14.8827 41.6419 14.8243C42.7356 14.6272 43.1588 14.2604 43.7084 13.8905L35.3533 5.53516C35.2319 5.83897 35.046 6.12658 34.7666 6.38651H31.5571" fill="#FF473E"/>
<path d="M4.94386 15.4991H0.551425C0.432762 15.4991 0.318958 15.452 0.235051 15.3681C0.151143 15.2842 0.104004 15.1703 0.104004 15.0517C0.104004 14.933 0.151143 14.8192 0.235051 14.7353C0.318958 14.6514 0.432762 14.6042 0.551425 14.6042H4.94386C5.06252 14.6042 5.17633 14.6514 5.26023 14.7353C5.34414 14.8192 5.39128 14.933 5.39128 15.0517C5.39128 15.1703 5.34414 15.2842 5.26023 15.3681C5.17633 15.452 5.06252 15.4991 4.94386 15.4991Z" fill="#597B91"/>
</g>
<defs>
<clipPath id="clip0_0_95">
<rect width="64" height="19" fill="white" transform="translate(0 0.5)"/>
</clipPath>
</defs>
</svg>
