<svg width="43" height="28" viewBox="0 0 43 28" fill="none" xmlns="http://www.w3.org/2000/svg">
<g clip-path="url(#clip0_0_116)">
<path d="M32.4929 0.829467C26.7457 -0.370937 26.7116 3.75492 21.092 3.75492C16.23 3.75492 16.0477 -0.324188 9.69079 0.829467C-0.71835 2.71147 -2.31864 25.6136 3.20344 26.8139C6.26926 27.4799 7.81385 23.9246 11.8673 21.3727C12.469 21.8175 13.1681 22.1124 13.9065 22.2331C14.645 22.3538 15.4016 22.2967 16.1136 22.0666C16.8256 21.8365 17.4725 21.44 18.0007 20.91C18.5288 20.3799 18.9231 19.7316 19.1506 19.0188C19.7956 18.9629 20.4426 18.9352 21.0899 18.9357C21.7716 18.9357 22.4084 18.9649 23.0188 19.0177C23.247 19.7306 23.6419 20.3789 24.1707 20.9087C24.6995 21.4386 25.347 21.8347 26.0595 22.0642C26.772 22.2938 27.529 22.3502 28.2676 22.2287C29.0062 22.1073 29.7053 21.8114 30.3067 21.3658C34.3652 23.9178 35.9098 27.4769 38.9765 26.81C44.4977 25.6136 42.8565 2.99324 32.4929 0.829467ZM11.1752 12.5389H8.78816V10.1117H6.35983V7.72465H8.78798V5.29654H11.175V7.72364H13.6021V10.1108H11.175V12.5379L11.1752 12.5389ZM14.6651 20.7213C14.0451 20.7213 13.439 20.5374 12.9234 20.1929C12.4079 19.8484 12.0061 19.3587 11.7688 18.7859C11.5316 18.213 11.4695 17.5826 11.5905 16.9745C11.7114 16.3664 12.01 15.8077 12.4485 15.3693C12.8869 14.9309 13.4455 14.6323 14.0537 14.5113C14.6618 14.3904 15.2921 14.4524 15.865 14.6897C16.4378 14.927 16.9274 15.3289 17.2719 15.8444C17.6164 16.36 17.8003 16.9661 17.8003 17.5862C17.8005 18.4176 17.4704 19.2151 16.8827 19.8033C16.295 20.3914 15.4977 20.7219 14.6662 20.7222L14.6651 20.7213ZM27.5027 20.7213C26.8827 20.7207 26.2768 20.5363 25.7616 20.1915C25.2464 19.8466 24.8451 19.3567 24.6082 18.7837C24.3714 18.2108 24.3098 17.5804 24.4312 16.9725C24.5525 16.3645 24.8514 15.8061 25.2901 15.368C25.7287 14.9299 26.2875 14.6316 26.8956 14.511C27.5037 14.3904 28.1339 14.4528 28.7066 14.6903C29.2793 14.9278 29.7687 15.3298 30.1129 15.8454C30.4571 16.3611 30.6408 16.9672 30.6406 17.5872C30.6405 17.9991 30.5593 18.407 30.4016 18.7876C30.2439 19.1681 30.0127 19.5139 29.7213 19.805C29.4298 20.0962 29.0839 20.327 28.7032 20.4844C28.3225 20.6418 27.9145 20.7226 27.5026 20.7222L27.5027 20.7213ZM29.6652 10.4988C29.3524 10.4989 29.0466 10.4061 28.7864 10.2324C28.5263 10.0586 28.3235 9.81155 28.2038 9.52252C28.084 9.23349 28.0527 8.91544 28.1137 8.6086C28.1747 8.30175 28.3253 8.0199 28.5466 7.79868C28.7678 7.57745 29.0496 7.42681 29.3565 7.36578C29.6633 7.30476 29.9814 7.33611 30.2704 7.45586C30.5594 7.57561 30.8064 7.77838 30.9802 8.03853C31.154 8.29868 31.2467 8.60452 31.2466 8.91738C31.2466 9.33687 31.08 9.73918 30.7834 10.0358C30.4868 10.3324 30.0845 10.4991 29.665 10.4991L29.6652 10.4988ZM33.0908 13.9246C32.778 13.9246 32.4722 13.8319 32.2121 13.6581C31.9519 13.4843 31.7492 13.2373 31.6295 12.9483C31.5097 12.6593 31.4784 12.3413 31.5394 12.0344C31.6004 11.7276 31.751 11.4458 31.9722 11.2246C32.1934 11.0033 32.4752 10.8527 32.782 10.7916C33.0889 10.7306 33.4069 10.7619 33.6959 10.8816C33.9849 11.0013 34.232 11.204 34.4058 11.4641C34.5796 11.7242 34.6724 12.03 34.6724 12.3428C34.6725 12.5509 34.6316 12.757 34.5519 12.9493C34.4722 13.1416 34.3554 13.3162 34.2081 13.4633C34.0608 13.6103 33.886 13.7268 33.6936 13.8061C33.5012 13.8855 33.295 13.926 33.0869 13.9255L33.0908 13.9246ZM33.0908 7.07226C32.778 7.07228 32.4722 6.97953 32.212 6.80574C31.9519 6.63195 31.7492 6.38493 31.6295 6.09592C31.5097 5.8069 31.4784 5.48887 31.5394 5.18204C31.6004 4.87522 31.7511 4.59338 31.9723 4.37216C32.1935 4.15095 32.4753 4.0003 32.7821 3.93926C33.0889 3.87822 33.4069 3.90954 33.696 4.02925C33.985 4.14897 34.232 4.3517 34.4058 4.61181C34.5796 4.87192 34.6724 5.17773 34.6724 5.49056C34.6725 5.69867 34.6315 5.90476 34.5519 6.09702C34.4722 6.28928 34.3554 6.46392 34.2081 6.61094C34.0608 6.75796 33.8859 6.87447 33.6935 6.95379C33.5011 7.03311 33.295 7.07368 33.0869 7.07317L33.0908 7.07226ZM36.5163 10.4979C36.2035 10.4979 35.8977 10.4051 35.6376 10.2313C35.3775 10.0575 35.1748 9.8105 35.0551 9.52148C34.9354 9.23246 34.904 8.91444 34.9651 8.60762C35.0261 8.3008 35.1767 8.01897 35.3979 7.79776C35.6191 7.57656 35.901 7.42591 36.2078 7.36488C36.5146 7.30385 36.8326 7.33518 37.1216 7.45489C37.4106 7.57461 37.6577 7.77734 37.8315 8.03745C38.0053 8.29756 38.098 8.60336 38.098 8.91619C38.0981 9.12433 38.0572 9.33044 37.9775 9.52272C37.8978 9.715 37.781 9.88966 37.6337 10.0367C37.4864 10.1837 37.3115 10.3002 37.1191 10.3796C36.9267 10.4589 36.7205 10.4994 36.5123 10.4989L36.5163 10.4979Z" fill="url(#paint0_linear_0_116)"/>
</g>
<defs>
<linearGradient id="paint0_linear_0_116" x1="21.0845" y1="0.610474" x2="21.0845" y2="26.8955" gradientUnits="userSpaceOnUse">
<stop offset="1" stop-color="#597B91"/>
</linearGradient>
<clipPath id="clip0_0_116">
<rect width="43" height="27" fill="white" transform="translate(0 0.5)"/>
</clipPath>
</defs>
</svg>
