<svg width="48" height="48" viewBox="0 0 48 48" fill="none" xmlns="http://www.w3.org/2000/svg">
<path d="M24 2.34375C12.0281 2.34375 2.34375 12.0281 2.34375 24C2.34375 35.9719 12.0281 45.6562 24 45.6562C35.9719 45.6562 45.6562 35.9719 45.6562 24C45.6562 12.0281 35.9719 2.34375 24 2.34375ZM24 5.15625C34.3969 5.15625 42.8438 13.6031 42.8438 24C42.8438 34.3969 34.3969 42.8438 24 42.8438C13.6031 42.8438 5.15625 34.3969 5.15625 24C5.15625 13.6031 13.6031 5.15625 24 5.15625ZM7.54875 19.1156C7.10719 20.9156 6.84375 22.5844 6.84375 24.1781C20.4094 27.0187 18.2344 30.0281 20.7188 40.8469C21.7875 41.0438 22.875 41.1562 24 41.1562C25.125 41.1562 26.2125 41.0438 27.2812 40.8469C29.7656 30.0281 27.5906 27.0187 41.1562 24.1781C41.1 22.4062 40.875 20.5781 40.4531 19.1156C32.5031 17.1281 28.2281 16.125 24 16.125C19.7719 16.125 15.4969 17.1281 7.54875 19.1156ZM24 17.1562C27.7687 17.1562 30.8438 20.2313 30.8438 24C30.8438 27.7687 27.7687 30.8438 24 30.8438C20.2313 30.8438 17.1562 27.7687 17.1562 24C17.1562 20.2313 20.2313 17.1562 24 17.1562ZM24 18.8438C21.1406 18.8438 18.8438 21.1406 18.8438 24C18.8438 26.8594 21.1406 29.1562 24 29.1562C26.8594 29.1562 29.1562 26.8594 29.1562 24C29.1562 21.1406 26.8594 18.8438 24 18.8438Z" fill="white" fill-opacity="0.7"/>
</svg>
