<svg width="64" height="45" viewBox="0 0 64 45" fill="none" xmlns="http://www.w3.org/2000/svg">
<g clip-path="url(#clip0_0_93)">
<path d="M21.3963 -4.68575C21.4515 -4.96516 21.45 -5.2528 21.3919 -5.53162C21.3339 -5.81045 21.2205 -6.07478 21.0584 -6.30895C20.8962 -6.54312 20.6888 -6.74236 20.4483 -6.89486C20.2077 -7.04736 19.939 -7.15002 19.6581 -7.19675C19.3772 -7.24348 19.0897 -7.23333 18.8127 -7.1669C18.5358 -7.10047 18.275 -6.97912 18.0458 -6.81003C17.8167 -6.64094 17.6238 -6.42756 17.4786 -6.18254C17.3334 -5.93752 17.2389 -5.66585 17.2007 -5.38362L8.69021 45.6802C8.63504 45.9596 8.63652 46.2472 8.69457 46.526C8.75262 46.8049 8.86606 47.0692 9.02817 47.3034C9.19027 47.5375 9.39773 47.7368 9.63826 47.8893C9.87879 48.0418 10.1475 48.1444 10.4284 48.1912C10.7094 48.2379 10.9968 48.2277 11.2738 48.1613C11.5507 48.0949 11.8115 47.9735 12.0407 47.8044C12.2698 47.6354 12.4627 47.422 12.6079 47.177C12.7531 46.9319 12.8476 46.6603 12.8859 46.378L15.7369 29.2717C19.1666 29.7738 22.8729 29.9398 25.792 31.9866C27.598 33.2844 29.6865 34.1347 31.8854 34.4674C35.996 35.0887 39.6725 32.8291 43.732 33.4717L49.217 34.2972C50.3233 34.4674 51.4722 33.6163 51.6382 32.51L55.3998 7.25892L55.4168 7.2419C55.4726 6.68643 55.3163 6.13041 54.9793 5.68532C54.6423 5.24023 54.1496 4.93896 53.5998 4.8419L48.1149 4.01637C44.0171 3.40786 40.3321 5.60361 36.2726 4.9951C34.4519 4.7186 32.7201 4.02382 31.2131 2.96531C28.0685 0.765312 24.3239 0.399354 20.6346 -0.119795L21.3963 -4.68575ZM18.8857 10.3696L20.2899 1.97808C22.8388 2.32701 25.5366 2.52701 27.8983 3.54829L26.643 11.91C24.2175 10.9185 21.4772 10.727 18.8857 10.3696ZM16.09 27.1781L17.4943 18.7781C20.1325 19.144 22.9282 19.3313 25.4005 20.344L26.677 11.9355C29.477 13.0845 31.6088 15.0547 34.7322 15.5142L36.0088 7.08871C39.1491 7.56105 41.749 6.33552 44.766 6.09297L43.4894 14.4589C40.4682 14.7142 37.8555 15.9908 34.7237 15.5227L33.5067 23.9398C30.3748 23.4717 28.2387 21.493 25.426 20.3483L24.1494 28.7568C21.6176 27.7398 18.7751 27.561 16.09 27.1781ZM33.5109 23.944C36.6343 24.4121 39.2597 23.127 42.281 22.8759L43.4894 14.4589C46.2766 14.2036 49.1276 14.9313 51.8637 15.3483L50.6723 23.7568C47.9319 23.344 45.0724 22.6121 42.2852 22.8759L41.0086 31.2844C37.9917 31.4887 35.3279 32.8163 32.2344 32.3483L33.5109 23.944Z" fill="white" fill-opacity="0.6"/>
</g>
<defs>
<clipPath id="clip0_0_93">
<rect width="64" height="44" fill="white" transform="translate(0 0.226074)"/>
</clipPath>
</defs>
</svg>
